<svg xmlns="http://www.w3.org/2000/svg" viewBox="0 0 100 100"><defs/><defs><linearGradient id="a" x1="0" x2="1" y1="1" y2="0"><stop offset="0%" stop-color="#B0084D"/><stop offset="100%" stop-color="#FF4F8B"/></linearGradient></defs><g><path fill="url(#a)" fill-rule="evenodd" d="m 0,0 h 100 v 100 h -100 z"/><path fill="#fff" fill-rule="evenodd" d="m 56.25,55 h 26.25 v -8.75 h -26.25 z m 27.5,-11.25 h -28.75 c -0.691,0 -1.25,0.56 -1.25,1.25 v 11.25 c 0,0.69 0.559,1.25 1.25,1.25 h 28.75 c 0.691,0 1.25,-0.56 1.25,-1.25 v -11.25 c 0,-0.69 -0.559,-1.25 -1.25,-1.25 z m -29.375,34.375 c 0,2.413 -1.963,4.375 -4.375,4.375 -2.413,0 -4.375,-1.963 -4.375,-4.375 0,-2.413 1.963,-4.375 4.375,-4.375 2.413,0 4.375,1.963 4.375,4.375 z m -36.875,-19.375 h 22.5 v -5 h -22.5 z m 0,-12.5 h 22.5 v -5 h -22.5 z m 28.125,-24.375 c 0,-2.413 1.963,-4.375 4.375,-4.375 2.413,0 4.375,1.963 4.375,4.375 0,2.413 -1.963,4.375 -4.375,4.375 -2.413,0 -4.375,-1.963 -4.375,-4.375 z m 24.375,44.375 h -40 v -5 h 11.25 c 0.691,0 1.25,-0.56 1.25,-1.25 v -7.5 c 0,-0.69 -0.559,-1.25 -1.25,-1.25 h -11.25 v -2.5 h 11.25 c 0.691,0 1.25,-0.56 1.25,-1.25 v -7.5 c 0,-0.69 -0.559,-1.25 -1.25,-1.25 h -11.25 v -3.75 h 40 v 5 h 2.5 v -6.25 c 0,-0.69 -0.559,-1.25 -1.25,-1.25 h -20 v -3.87 c 3.195,-0.59 5.625,-3.391 5.625,-6.755 0,-3.791 -3.085,-6.875 -6.875,-6.875 -3.79,0 -6.875,3.084 -6.875,6.875 0,3.364 2.43,6.165 5.625,6.755 v 3.87 h -20 c -0.691,0 -1.25,0.56 -1.25,1.25 v 5 h -11.25 c -0.691,0 -1.25,0.56 -1.25,1.25 v 7.5 c 0,0.69 0.559,1.25 1.25,1.25 h 11.25 v 2.5 h -11.25 c -0.691,0 -1.25,0.56 -1.25,1.25 v 7.5 c 0,0.69 0.559,1.25 1.25,1.25 h 11.25 v 6.25 c 0,0.69 0.559,1.25 1.25,1.25 h 20 v 2.62 c -3.195,0.59 -5.625,3.391 -5.625,6.755 0,3.791 3.085,6.875 6.875,6.875 3.79,0 6.875,-3.084 6.875,-6.875 0,-3.364 -2.43,-6.165 -5.625,-6.755 v -2.62 h 20 c 0.691,0 1.25,-0.56 1.25,-1.25 v -6.216 h -2.5 z"/></g></svg>
